<svg fill="none" xmlns="http://www.w3.org/2000/svg" width="24" height="24" viewBox="0 0 24 24"><path d="M2.13 13.63a9.94 9.94 0 0 1 0-3.26c1.1.03 2.1-.5 2.48-1.43.38-.93.06-2-.74-2.76a9.94 9.94 0 0 1 2.3-2.31c.77.8 1.84 1.12 2.77.74.93-.39 1.46-1.38 1.43-2.48a9.94 9.94 0 0 1 3.26 0c-.03 1.1.5 2.1 1.43 2.48.93.38 2 .06 2.76-.74.9.64 1.67 1.41 2.31 2.3-.8.77-1.12 1.84-.74 2.77.39.93 1.38 1.46 2.48 1.43a9.94 9.94 0 0 1 0 3.26c-1.1-.03-2.1.5-2.48 1.43-.38.93-.06 2 .74 2.76a9.94 9.94 0 0 1-2.3 2.31c-.76-.8-1.84-1.12-2.77-.74-.93.39-1.46 1.38-1.43 2.48a9.94 9.94 0 0 1-3.26 0c.03-1.1-.5-2.1-1.43-2.48-.93-.38-2-.06-2.76.74a9.94 9.94 0 0 1-2.31-2.3c.8-.76 1.12-1.84.74-2.77-.39-.93-1.38-1.46-2.48-1.43ZM12 15a3 3 0 1 0 0-6 3 3 0 0 0 0 6Z"/></svg>
